<svg width="21" height="14" viewBox="0 0 21 14" fill="none" xmlns="http://www.w3.org/2000/svg">
<path d="M20.8666 6.28386C20.6789 6.02722 16.2089 0 10.4999 0C4.79088 0 0.320661 6.02722 0.13326 6.28361C-0.04442 6.52708 -0.04442 6.8573 0.13326 7.10077C0.320661 7.3574 4.79088 13.3846 10.4999 13.3846C16.2089 13.3846 20.6789 7.35736 20.8666 7.10097C21.0445 6.85755 21.0445 6.52708 20.8666 6.28386ZM10.4999 12C6.2946 12 2.65237 7.99963 1.57418 6.69184C2.65097 5.38291 6.28558 1.38461 10.4999 1.38461C14.705 1.38461 18.347 5.3843 19.4256 6.69278C18.3488 8.00168 14.7142 12 10.4999 12Z" fill="#33386F"/>
<path d="M10.4999 2.53857C8.20954 2.53857 6.34607 4.40204 6.34607 6.69244C6.34607 8.98284 8.20954 10.8463 10.4999 10.8463C12.7903 10.8463 14.6538 8.98284 14.6538 6.69244C14.6538 4.40204 12.7903 2.53857 10.4999 2.53857ZM10.4999 9.46166C8.97292 9.46166 7.73072 8.21942 7.73072 6.69244C7.73072 5.16547 8.97296 3.92322 10.4999 3.92322C12.0269 3.92322 13.2692 5.16547 13.2692 6.69244C13.2692 8.21942 12.027 9.46166 10.4999 9.46166Z" fill="#33386F"/>
</svg>
