<svg width="12" height="12" viewBox="0 0 12 12" fill="none" xmlns="http://www.w3.org/2000/svg">
<g clip-path="url(#clip0)">
<path d="M11.4542 7.63634C11.153 7.63634 10.9088 7.88056 10.9088 8.18179V10.1376L7.47631 6.70517C7.26333 6.49216 6.91795 6.49216 6.70493 6.70517C6.49191 6.91819 6.49191 7.26354 6.70493 7.47656L10.1373 10.9089L8.18144 10.9091C7.8802 10.9091 7.63599 11.1533 7.63602 11.4546C7.63606 11.7558 7.88028 12 8.18151 12L11.4542 11.9998C11.7555 11.9998 11.9997 11.7555 11.9997 11.4543V8.18179C11.9997 7.88056 11.7554 7.63634 11.4542 7.63634Z" fill="white"/>
<path d="M0.545455 4.36364C0.846691 4.36364 1.09091 4.11942 1.09091 3.81818V1.86236L4.52335 5.2948C4.62985 5.40131 4.76945 5.45458 4.90902 5.45458C5.04862 5.45458 5.18822 5.40135 5.29473 5.2948C5.50775 5.08178 5.50775 4.73644 5.29473 4.52342L1.86236 1.09105L3.81822 1.09091C4.11945 1.09091 4.36367 0.846655 4.36364 0.545418C4.3636 0.244182 4.11938 0 3.81815 0L0.545418 0.000218182C0.244182 0.000218182 0 0.244436 0 0.545673V3.81818C0 4.11942 0.244218 4.36364 0.545455 4.36364Z" fill="white"/>
<path d="M4.52342 6.7053L1.09105 10.1377L1.09091 8.1818C1.09091 7.88057 0.846655 7.63638 0.545418 7.63638C0.244182 7.63638 0 7.88064 0 8.18188L0.000218182 11.4546C0.000218182 11.7558 0.244436 12 0.545673 12H3.81818C4.11942 12 4.36364 11.7558 4.36364 11.4546C4.36364 11.1533 4.11942 10.9091 3.81818 10.9091H1.86236L5.2948 7.47668C5.50782 7.26366 5.50782 6.91831 5.2948 6.7053C5.08178 6.49228 4.7364 6.49228 4.52342 6.7053Z" fill="white"/>
<path d="M7.09076 5.45444C7.23036 5.45444 7.36996 5.4012 7.47644 5.29465L10.9088 1.86229L10.909 3.81822C10.909 4.11945 11.1532 4.36367 11.4544 4.36364C11.7557 4.3636 11.9999 4.11938 11.9999 3.81815L11.9996 0.545418C11.9996 0.244182 11.7554 0 11.4542 0H8.18167C7.88044 0 7.63622 0.244218 7.63622 0.545455C7.63622 0.846691 7.88044 1.09091 8.18167 1.09091H10.1375L6.70505 4.52331C6.49203 4.73633 6.49203 5.08167 6.70505 5.29469C6.81156 5.4012 6.95116 5.45444 7.09076 5.45444Z" fill="white"/>
</g>
<defs>
<clipPath id="clip0">
<rect width="12" height="12" fill="white"/>
</clipPath>
</defs>
</svg>
