<svg width="134" height="51" viewBox="0 0 134 51" fill="none" xmlns="http://www.w3.org/2000/svg">
<path fill-rule="evenodd" clip-rule="evenodd" d="M3.85355 35.5813C3.49544 36.3301 2.44835 36.3443 2.1205 35.5813C-0.676792 29.0733 -0.764554 21.4415 2.51997 14.5535C8.57353 1.85811 23.8038 -3.53815 36.5102 2.51022C49.2155 8.5586 54.6164 23.7768 48.5628 36.4713C45.3933 43.1183 39.7059 47.7657 33.1823 49.8168C32.3783 50.0698 31.7064 49.2423 32.0685 48.4813L34.5633 43.2564C34.8376 42.6638 34.538 42.1437 33.9237 42.1437C33.3104 42.1417 32.6082 42.6496 32.3268 43.2514L28.9666 50.2935C28.8184 50.6029 28.5228 50.8176 28.1808 50.8539C27.8257 50.8912 27.4687 50.9204 27.1105 50.9436C26.3711 50.99 25.8819 50.2209 26.2016 49.5527L33.1803 34.9262C33.4536 34.3365 33.155 33.8144 32.5406 33.8144C31.9253 33.8134 31.2252 34.3224 30.9449 34.9221L23.6182 50.2683C23.4376 50.6483 23.0392 50.8771 22.6205 50.8287C22.3048 50.7925 21.989 50.7501 21.6733 50.7017C21.0247 50.602 20.6766 49.9035 20.9591 49.3119L32.0292 26.1071C32.3057 25.5154 32.006 24.9963 31.3917 24.9954C30.7784 24.9954 30.0773 25.5013 29.7948 26.103L18.7681 49.2C18.5552 49.6464 18.0489 49.8742 17.5788 49.72C17.2912 49.6252 17.0048 49.5255 16.7193 49.4207C16.1786 49.2211 15.9426 48.5972 16.1897 48.0781L31.89 15.1765C32.1644 14.5838 31.8648 14.0637 31.2505 14.0637C30.6361 14.0637 29.9351 14.5697 29.6536 15.1714L14.3436 47.2446C14.0995 47.7577 13.4771 47.9683 12.9818 47.6891C12.7185 47.5399 12.4593 47.3877 12.203 47.2305C11.7743 46.9685 11.6251 46.4232 11.8409 45.9696L24.175 20.1202C24.4514 19.5295 24.1519 19.0094 23.5385 19.0074C22.9252 19.0074 22.223 19.5154 21.9407 20.1171L10.3368 44.4245C10.0594 45.0071 9.31194 45.1825 8.82473 44.7592C8.58663 44.5535 8.3536 44.3439 8.12467 44.1303C7.80991 43.8369 7.73021 43.3733 7.91482 42.9853L12.7438 32.8691C13.0181 32.2774 12.7185 31.7573 12.1042 31.7573C11.4919 31.7553 10.7898 32.2633 10.5073 32.865L6.79913 40.6329C6.4844 41.293 5.59367 41.4059 5.15485 40.8203C4.94402 40.5391 4.73924 40.2538 4.54052 39.9656C4.34078 39.6753 4.31758 39.3014 4.46889 38.9839L10.8513 25.6041C11.1277 25.0125 10.8281 24.4934 10.2138 24.4924C9.59842 24.4914 8.89941 24.9983 8.6179 25.6001L3.85355 35.5813Z" fill="white"/>
<path fill-rule="evenodd" clip-rule="evenodd" d="M88.7913 20.886C88.7913 19.8932 88.5815 19.2018 88.1651 18.8118C87.7471 18.4227 87.2519 18.2282 86.6796 18.2282C86.0839 18.2282 85.5824 18.4348 85.1772 18.8481C84.7713 19.2622 84.5687 19.7511 84.5687 20.3185V26.9102C85.3798 26.5091 86.0414 26.1068 86.555 25.7058C87.0662 25.3036 87.4907 24.8903 87.8251 24.466C88.2061 23.946 88.4625 23.4027 88.5935 22.8353C88.7246 22.2688 88.7913 21.6188 88.7913 20.886ZM91.4737 31.1635C91.4737 31.8489 91.3483 32.4929 91.0983 33.0956C90.8483 33.6984 90.5019 34.2235 90.0613 34.672C89.6184 35.1215 89.1008 35.4753 88.5035 35.7353C87.9079 35.9953 87.264 36.1253 86.5727 36.1253C85.8806 36.1253 85.2367 35.9953 84.6403 35.7353C84.0438 35.4753 83.5253 35.1215 83.084 34.672C82.6427 34.2235 82.2971 33.6984 82.0471 33.0956C81.7963 32.4929 81.6701 31.8489 81.6701 31.1635V20.3185C81.6701 19.6331 81.8019 18.9901 82.0648 18.3875C82.326 17.7837 82.6845 17.2596 83.1371 16.8101C83.5904 16.3616 84.1218 16.0068 84.7303 15.7467C85.3372 15.4867 85.9883 15.3567 86.6796 15.3567C87.3709 15.3567 88.0204 15.4806 88.6297 15.7296C89.2382 15.9775 89.7688 16.3313 90.2213 16.7919C90.6747 17.2536 91.0324 17.8139 91.2952 18.4751C91.5581 19.1373 91.6883 19.8932 91.6883 20.7439C91.6883 21.9967 91.5693 23.054 91.3314 23.9157C91.0919 24.7785 90.7221 25.5525 90.2213 26.2369C89.649 26.9938 88.9046 27.6732 87.985 28.2759C87.0662 28.8776 85.9272 29.5216 84.5687 30.207V31.1635C84.5687 31.7552 84.7528 32.25 85.1234 32.6521C85.4923 33.0533 85.9754 33.2549 86.5727 33.2549C87.145 33.2549 87.6225 33.0533 88.0035 32.6521C88.3845 32.25 88.5751 31.7552 88.5751 31.1635C88.5751 30.973 88.6972 30.8047 88.8789 30.7442L90.2607 30.2876C90.858 30.0911 91.4737 30.5356 91.4737 31.1635ZM75.1952 18.2282C74.599 18.2282 74.0986 18.4348 73.6921 18.8481C73.2876 19.2622 73.0839 19.7511 73.0839 20.3185V31.1645C73.0839 31.7552 73.2876 32.25 73.6921 32.6521C74.0986 33.0533 74.599 33.2549 75.1952 33.2549C75.7681 33.2549 76.2625 33.0533 76.6801 32.6521C77.0977 32.25 77.3065 31.7552 77.3065 31.1645C77.3065 30.973 77.4286 30.8047 77.6092 30.7442L78.9911 30.2876C79.5884 30.0911 80.2047 30.5356 80.2047 31.1645C80.2047 31.8489 80.0736 32.4929 79.8102 33.0956C79.548 33.6984 79.1909 34.2235 78.7369 34.672C78.284 35.1215 77.7534 35.4753 77.1441 35.7353C76.5368 35.9953 75.8872 36.1253 75.1952 36.1253C74.5032 36.1253 73.8545 35.9953 73.2453 35.7353C72.6369 35.4753 72.1064 35.1215 71.6534 34.672C71.2005 34.2235 70.8424 33.6984 70.5801 33.0956C70.3168 32.4929 70.1857 31.8489 70.1857 31.1645V20.3185C70.1857 19.5394 70.3168 18.842 70.5801 18.2282C70.8424 17.6134 71.2005 17.0933 71.6534 16.669C72.1064 16.2436 72.6369 15.9191 73.2453 15.6943C73.8545 15.4686 74.5032 15.3567 75.1952 15.3567C75.8872 15.3567 76.5368 15.4746 77.1441 15.7114C77.7534 15.9473 78.284 16.2779 78.7369 16.7042C79.1909 17.1296 79.548 17.6496 79.8102 18.2634C80.0736 18.8773 80.2047 19.5626 80.2047 20.3185C80.2047 20.7882 79.8234 21.1692 79.3533 21.1692H78.1569C77.6879 21.1692 77.3065 20.7882 77.3065 20.3185C77.3065 19.7511 77.0977 19.2622 76.6801 18.8481C76.2625 18.4348 75.7681 18.2282 75.1952 18.2282ZM65.8218 35.2122C65.8218 35.7646 66.2687 36.211 66.8215 36.211H67.7203C68.2721 36.211 68.72 35.7646 68.72 35.2122V11.182C68.72 10.6297 68.2721 10.1822 67.7203 10.1822H66.8215C66.2687 10.1822 65.8218 10.6297 65.8218 11.182V35.2122ZM130.466 26.0938V20.4224C130.466 19.8318 130.257 19.3358 129.841 18.9337C129.422 18.5326 128.928 18.332 128.355 18.332C127.76 18.332 127.258 18.5326 126.854 18.9337C126.447 19.3358 126.245 19.8318 126.245 20.4224V26.0938C126.245 26.6834 126.447 27.1793 126.854 27.5814C127.258 27.9826 127.76 28.1832 128.355 28.1832C128.928 28.1832 129.422 27.9826 129.841 27.5814C130.257 27.1793 130.466 26.6834 130.466 26.0938ZM133.364 18.2957V26.0938C133.364 27.4394 133 28.5259 132.274 29.3533C131.546 30.1798 130.359 30.6646 128.713 30.8067C127.95 30.8772 127.455 31.0486 127.228 31.3197C127.002 31.5919 126.888 31.8811 126.888 32.1885C126.888 32.378 126.961 32.5957 127.103 32.8446C127.246 33.0926 127.485 33.2407 127.819 33.2872H132.568C133.293 33.2872 133.778 34.036 133.479 34.6972L133.068 35.6093C132.905 35.9702 132.544 36.2009 132.149 36.1979L127.032 36.1576C125.601 36.1475 124.886 36.5476 124.886 37.3268C124.886 38.1079 125.601 38.497 127.032 38.497H129.994C130.755 38.497 131.237 39.3103 130.871 39.9765L130.393 40.8494C130.217 41.1689 130.048 41.3674 129.683 41.3674H127.2C125.744 41.3674 124.378 41.0025 123.436 40.2698C122.494 39.5371 122.023 38.5685 122.023 37.3631C122.023 36.4177 122.327 35.6033 122.935 34.9179C123.544 34.2326 124.348 33.7598 125.351 33.4998C125.015 33.3819 124.773 33.1934 124.618 32.9323C124.462 32.6733 124.384 32.3891 124.384 32.0827C124.384 31.7521 124.515 31.4326 124.779 31.1252C125.04 30.8188 125.446 30.6051 125.995 30.4882C124.229 29.566 123.348 28.1015 123.348 26.0938V20.4224C123.348 19.737 123.46 19.0929 123.686 18.4903C123.913 17.8885 124.229 17.3624 124.635 16.9139C125.04 16.4654 125.541 16.1106 126.138 15.8495C126.734 15.5895 127.401 15.4605 128.14 15.4605C128.904 15.4605 129.548 15.5371 130.072 15.6913C130.597 15.8445 130.98 15.9917 131.218 16.1337H132.936C133.732 16.1337 134.209 17.0197 133.77 17.6839L133.364 18.2957ZM121.421 15.3728C121.827 15.3728 122.172 15.4262 122.458 15.532C122.503 15.5492 122.548 15.5674 122.589 15.5845C122.955 15.7427 123.044 16.1802 122.898 16.552L122.416 17.7796C122.269 18.1546 121.824 18.2433 121.421 18.2433C120.825 18.2433 120.324 18.4509 119.918 18.8641C119.513 19.2764 119.311 19.7673 119.311 20.3347V35.1961C119.311 35.7484 118.862 36.1959 118.31 36.1959H117.412C116.86 36.1959 116.412 35.7484 116.412 35.1961V16.549C116.412 15.9977 116.86 15.5502 117.412 15.5502H117.736C118.11 15.5502 118.452 15.7578 118.624 16.0894L118.987 16.7909C119.155 16.4603 119.442 16.1408 119.847 15.8334C120.253 15.526 120.777 15.3728 121.421 15.3728ZM112.046 20.9233C112.046 19.9305 111.837 19.2391 111.421 18.8501C111.002 18.46 110.509 18.2655 109.936 18.2655C109.34 18.2655 108.838 18.4711 108.434 18.8843C108.027 19.2985 107.825 19.7884 107.825 20.3558V26.9475C108.636 26.5463 109.297 26.1442 109.811 25.743C110.323 25.3409 110.747 24.9277 111.081 24.5023C111.461 23.9823 111.718 23.439 111.849 22.8726C111.98 22.3051 112.046 21.655 112.046 20.9233ZM114.73 31.2008C114.73 31.8862 114.604 32.5292 114.353 33.1329C114.104 33.7356 113.758 34.2607 113.316 34.7093C112.875 35.1578 112.357 35.5125 111.761 35.7726C111.164 36.0327 110.52 36.1627 109.829 36.1627C109.137 36.1627 108.493 36.0327 107.896 35.7726C107.3 35.5125 106.781 35.1578 106.341 34.7093C105.899 34.2607 105.554 33.7356 105.303 33.1329C105.052 32.5292 104.927 31.8862 104.927 31.2008V20.3558C104.927 19.6694 105.059 19.0264 105.321 18.4237C105.583 17.821 105.94 17.2959 106.393 16.8473C106.846 16.3989 107.378 16.044 107.986 15.783C108.594 15.523 109.245 15.393 109.936 15.393C110.628 15.393 111.278 15.518 111.886 15.7659C112.494 16.0138 113.025 16.3686 113.478 16.8292C113.931 17.2898 114.289 17.8512 114.551 18.5124C114.814 19.1746 114.944 19.9305 114.944 20.7812C114.944 22.033 114.824 23.0913 114.586 23.953C114.349 24.8158 113.979 25.5888 113.478 26.2742C112.905 27.0301 112.159 27.7104 111.241 28.3121C110.323 28.9139 109.185 29.5589 107.825 30.2443V31.2008C107.825 31.7924 108.009 32.2873 108.379 32.6895C108.748 33.0906 109.233 33.2921 109.829 33.2921C110.401 33.2921 110.878 33.0906 111.259 32.6895C111.64 32.2873 111.832 31.7924 111.832 31.2008C111.832 31.0103 111.953 30.8409 112.135 30.7815L113.518 30.3249C114.115 30.1284 114.73 30.5719 114.73 31.2008ZM98.3071 18.6505C97.7107 18.6505 97.1858 18.8561 96.7332 19.2704C96.2806 19.6836 96.0532 20.1744 96.0532 20.7408V31.2673C96.0532 31.858 96.2806 32.3538 96.7332 32.756C97.1858 33.1571 97.7107 33.3587 98.3071 33.3587C98.8795 33.3587 99.3987 33.1571 99.8634 32.756C100.33 32.3538 100.561 31.858 100.561 31.2673V20.7408C100.561 20.1744 100.33 19.6836 99.8634 19.2704C99.3987 18.8561 98.8795 18.6505 98.3071 18.6505ZM103.46 31.2673C103.46 31.9517 103.34 32.5957 103.101 33.1984C102.862 33.8012 102.535 34.3263 102.117 34.7758C101.7 35.2253 101.205 35.5791 100.633 35.8381C100.06 36.0992 99.4285 36.2292 98.738 36.2292C97.9727 36.2292 97.3297 36.1102 96.8048 35.8744C96.2807 35.6385 95.9221 35.3896 95.7308 35.1296L95.3844 35.6456C95.1987 35.9208 94.8884 36.087 94.5556 36.087H94.1561C93.6031 36.087 93.1561 35.6396 93.1561 35.0882V11.2203C93.1561 10.7899 93.4318 10.4069 93.8418 10.2719L94.7389 9.97551C95.3868 9.76187 96.0532 10.2436 96.0532 10.925V16.7718C96.1737 16.5117 96.4832 16.281 96.9832 16.0803C97.4848 15.8798 98.0563 15.779 98.7002 15.779C99.3931 15.779 100.031 15.909 100.615 16.168C101.199 16.4291 101.7 16.7839 102.117 17.2324C102.535 17.6809 102.862 18.207 103.101 18.8098C103.34 19.4115 103.46 20.0555 103.46 20.7408V31.2673Z" fill="white"/>
<path 
fill-rule="evenodd" 
clip-rule="evenodd" 
d="M118.418 39.1217C118.418 39.421 118.268 39.54 117.794 39.54C117.745 39.54 117.524 39.536 117.475 39.5309V38.6853C117.528 38.6813 117.763 38.6722 117.825 38.6722C118.205 38.6722 118.418 38.7962 118.418 39.0653V39.1217ZM119.299 41.2947C119.299 41.2816 119.293 41.2635 119.284 41.2464L118.602 40.0026C118.932 39.8767 119.185 39.5894 119.185 39.1217V39.0653C119.185 38.2842 118.593 38.0332 117.825 38.0332C117.5 38.0332 117.117 38.0594 116.91 38.0906C116.769 38.1128 116.707 38.1522 116.707 38.3023V41.2605C116.707 41.3079 116.747 41.3482 116.796 41.3482H117.384C117.433 41.3482 117.475 41.3079 117.475 41.2605V40.1397C117.559 40.1397 117.699 40.1488 117.794 40.1488L117.844 40.1448L118.449 41.2605C118.471 41.3038 118.49 41.3482 118.54 41.3482H119.229C119.28 41.3482 119.299 41.326 119.299 41.2947ZM116.137 41.2383V40.8271C116.137 40.7797 116.096 40.7394 116.047 40.7394H115.13C114.918 40.7394 114.841 40.6699 114.841 40.4401V39.9724H116.011C116.061 39.9724 116.102 39.9331 116.102 39.8837V39.4655C116.102 39.417 116.061 39.3778 116.011 39.3778H114.841V38.9766C114.841 38.7468 114.918 38.6772 115.13 38.6772H116.047C116.096 38.6772 116.137 38.6369 116.137 38.5886V38.1783C116.137 38.1219 116.111 38.0997 116.047 38.0906C115.889 38.0685 115.663 38.0332 115.176 38.0332C114.594 38.0332 114.074 38.1743 114.074 38.9766V40.4401C114.074 41.2423 114.588 41.3875 115.172 41.3875C115.659 41.3875 115.889 41.3522 116.047 41.3301C116.111 41.321 116.137 41.2947 116.137 41.2383ZM113.762 38.6107V38.1562C113.762 38.1078 113.717 38.0725 113.667 38.0725H111.428C111.378 38.0725 111.338 38.1078 111.338 38.1562V38.6107C111.338 38.6591 111.378 38.6944 111.428 38.6944H112.163V41.2605C112.163 41.3079 112.205 41.3482 112.255 41.3482H112.845C112.895 41.3482 112.936 41.3079 112.936 41.2605V38.6944H113.667C113.717 38.6944 113.762 38.6591 113.762 38.6107ZM111.025 41.1799V38.1562C111.025 38.1078 110.986 38.0725 110.935 38.0725H110.403C110.353 38.0725 110.313 38.1078 110.313 38.1562V40.0208C110.313 40.052 110.299 40.0611 110.29 40.0611C110.276 40.0611 110.271 40.052 110.254 40.0248L109.185 38.2096C109.129 38.1169 109.084 38.0725 108.993 38.0725H108.538C108.444 38.0725 108.366 38.1471 108.366 38.2408V41.2605C108.366 41.3079 108.407 41.3482 108.457 41.3482H108.989C109.04 41.3482 109.08 41.3079 109.08 41.2605V39.4745C109.08 39.4483 109.09 39.4392 109.103 39.4392C109.116 39.4392 109.125 39.4483 109.143 39.4745L110.172 41.2111C110.245 41.33 110.313 41.3482 110.407 41.3482H110.849C110.944 41.3482 111.025 41.2725 111.025 41.1799ZM107.798 41.2383V40.8271C107.798 40.7797 107.758 40.7394 107.707 40.7394H106.791C106.579 40.7394 106.502 40.6699 106.502 40.4401V39.9724H107.671C107.721 39.9724 107.762 39.9331 107.762 39.8837V39.4655C107.762 39.417 107.721 39.3778 107.671 39.3778H106.502V38.9766C106.502 38.7468 106.579 38.6772 106.791 38.6772H107.707C107.758 38.6772 107.798 38.6369 107.798 38.5886V38.1783C107.798 38.1219 107.771 38.0997 107.707 38.0906C107.549 38.0685 107.323 38.0332 106.836 38.0332C106.254 38.0332 105.735 38.1743 105.735 38.9766V40.4401C105.735 41.2423 106.249 41.3875 106.831 41.3875C107.319 41.3875 107.549 41.3522 107.707 41.3301C107.771 41.321 107.798 41.2947 107.798 41.2383ZM105.248 41.2111V40.7837C105.248 40.7303 105.22 40.6951 105.161 40.6951H105.147C104.976 40.7082 104.727 40.7303 104.48 40.7303C104.168 40.7303 103.919 40.5721 103.919 39.9855V39.4301C103.919 38.8436 104.168 38.6853 104.48 38.6853C104.727 38.6853 104.976 38.7085 105.147 38.7216H105.161C105.22 38.7216 105.248 38.6853 105.248 38.6329V38.2056C105.248 38.1431 105.211 38.126 105.147 38.1078C105.052 38.0775 104.79 38.0332 104.474 38.0332C103.789 38.0332 103.138 38.381 103.138 39.4301V39.9855C103.138 41.0347 103.789 41.3875 104.474 41.3875C104.79 41.3875 105.052 41.3431 105.147 41.3129C105.211 41.2947 105.248 41.2725 105.248 41.2111ZM100.551 39.9421H99.8787L100.154 38.7246C100.163 38.6813 100.176 38.6591 100.216 38.6591C100.258 38.6591 100.267 38.6813 100.276 38.7246L100.551 39.9421ZM101.64 41.2766C101.64 41.2725 101.635 41.2645 101.635 41.2544L100.962 38.522C100.858 38.0997 100.529 38.0332 100.216 38.0332C99.906 38.0332 99.5708 38.0997 99.4679 38.522L98.7951 41.2544C98.7951 41.2645 98.7903 41.2725 98.7903 41.2766C98.7903 41.321 98.8224 41.3482 98.8674 41.3482H99.4992C99.5435 41.3482 99.5796 41.3129 99.5901 41.2676L99.7524 40.5459H100.678L100.84 41.2676C100.849 41.3129 100.885 41.3482 100.931 41.3482H101.562C101.608 41.3482 101.64 41.321 101.64 41.2766ZM98.3883 41.2856V38.2277C98.3883 38.135 98.3208 38.0725 98.226 38.0725H97.8015C97.7067 38.0725 97.6432 38.1169 97.603 38.1914L96.9125 39.4483C96.894 39.4835 96.8803 39.5057 96.8626 39.5057C96.8442 39.5057 96.8313 39.4835 96.8128 39.4483L96.1223 38.1914C96.0813 38.1169 96.0194 38.0725 95.923 38.0725H95.4993C95.4045 38.0725 95.3362 38.1309 95.3362 38.2227V41.2856C95.3362 41.335 95.3772 41.3482 95.4141 41.3482H96.0098C96.05 41.3482 96.0813 41.3079 96.0813 41.2605V39.421C96.0813 39.3908 96.095 39.3868 96.1038 39.3868C96.1167 39.3868 96.1263 39.3959 96.14 39.417L96.5467 40.1448C96.5781 40.1971 96.6231 40.2193 96.6818 40.2193H97.0427C97.1014 40.2193 97.1472 40.1971 97.1794 40.1448L97.5845 39.417C97.599 39.3959 97.607 39.3868 97.6207 39.3868C97.6303 39.3868 97.6432 39.3908 97.6432 39.421V41.2605C97.6432 41.3079 97.6753 41.3482 97.7155 41.3482H98.312C98.3481 41.3482 98.3883 41.335 98.3883 41.2856ZM94.718 40.1175V38.1562C94.718 38.1078 94.6722 38.0725 94.6232 38.0725H94.0355C93.9865 38.0725 93.9447 38.1078 93.9447 38.1562V40.1175C93.9447 40.568 93.8193 40.7576 93.4126 40.7576C93.0066 40.7576 92.8844 40.568 92.8844 40.1175V38.1562C92.8844 38.1078 92.8443 38.0725 92.7944 38.0725H92.2028C92.1538 38.0725 92.1128 38.1078 92.1128 38.1562V40.1175C92.1128 41.1234 92.6955 41.3875 93.4126 41.3875C94.1304 41.3875 94.718 41.1234 94.718 40.1175ZM90.7261 39.9421H90.0541L90.3298 38.7246C90.3379 38.6813 90.3516 38.6591 90.3934 38.6591C90.4335 38.6591 90.4424 38.6813 90.452 38.7246L90.7261 39.9421ZM91.8153 41.2766C91.8153 41.2725 91.8105 41.2645 91.8105 41.2544L91.1369 38.522C91.0324 38.0997 90.7036 38.0332 90.3934 38.0332C90.0807 38.0332 89.7479 38.0997 89.6434 38.522L88.9698 41.2544C88.9698 41.2645 88.9649 41.2725 88.9649 41.2766C88.9649 41.321 88.9979 41.3482 89.0421 41.3482H89.6747C89.7189 41.3482 89.7567 41.3129 89.7655 41.2676L89.9271 40.5459H90.8531L91.0155 41.2676C91.0236 41.3129 91.0613 41.3482 91.1056 41.3482H91.7382C91.7824 41.3482 91.8153 41.321 91.8153 41.2766ZM87.8371 39.1217C87.8371 39.421 87.6876 39.54 87.215 39.54C87.1643 39.54 86.9433 39.536 86.8926 39.5309V38.6853C86.9481 38.6813 87.1812 38.6722 87.2455 38.6722C87.6249 38.6722 87.8371 38.7962 87.8371 39.0653V39.1217ZM88.7165 41.2947C88.7165 41.2816 88.7125 41.2635 88.7037 41.2464L88.0212 40.0026C88.3516 39.8767 88.6048 39.5894 88.6048 39.1217V39.0653C88.6048 38.2842 88.0132 38.0332 87.2455 38.0332C86.92 38.0332 86.5365 38.0594 86.3291 38.0906C86.1901 38.1128 86.125 38.1522 86.125 38.3023V41.2605C86.125 41.3079 86.1668 41.3482 86.2158 41.3482H86.8026C86.8524 41.3482 86.8926 41.3079 86.8926 41.2605V40.1397C86.9794 40.1397 87.1185 40.1488 87.215 40.1488L87.264 40.1448L87.8693 41.2605C87.8918 41.3038 87.9095 41.3482 87.9577 41.3482H88.649C88.6997 41.3482 88.7165 41.326 88.7165 41.2947ZM85.6973 38.6107V38.1562C85.6973 38.1078 85.6507 38.0725 85.6017 38.0725H83.3622C83.3123 38.0725 83.2721 38.1078 83.2721 38.1562V38.6107C83.2721 38.6591 83.3123 38.6944 83.3622 38.6944H84.0985V41.2605C84.0985 41.3079 84.1395 41.3482 84.1885 41.3482H84.7801C84.83 41.3482 84.8702 41.3079 84.8702 41.2605V38.6944H85.6017C85.6507 38.6944 85.6973 38.6591 85.6973 38.6107ZM81.8863 41.2383V40.8271C81.8863 40.7797 81.8461 40.7394 81.7955 40.7394H81.019C80.806 40.7394 80.7304 40.6699 80.7304 40.4401V38.1612C80.7304 38.1128 80.6902 38.0725 80.6396 38.0725H80.0494C79.9989 38.0725 79.9586 38.1128 79.9586 38.1612V40.4401C79.9586 41.2423 80.4772 41.3875 81.0592 41.3875C81.2979 41.3875 81.646 41.3613 81.7955 41.3301C81.859 41.317 81.8863 41.2947 81.8863 41.2383ZM78.5584 39.9421H77.8866L78.162 38.7246C78.17 38.6813 78.1842 38.6591 78.2245 38.6591C78.2658 38.6591 78.2749 38.6813 78.284 38.7246L78.5584 39.9421ZM79.6459 41.2766C79.6459 41.2725 79.6418 41.2645 79.6418 41.2544L78.9689 38.522C78.8651 38.0997 78.5362 38.0332 78.2245 38.0332C77.9128 38.0332 77.5789 38.0997 77.475 38.522L76.8021 41.2544C76.8021 41.2645 76.7971 41.2725 76.7971 41.2766C76.7971 41.321 76.8284 41.3482 76.8748 41.3482H77.5072C77.5517 41.3482 77.5879 41.3129 77.5961 41.2676L77.7595 40.5459H78.6855L78.8479 41.2676C78.856 41.3129 78.8923 41.3482 78.9377 41.3482H79.5702C79.6146 41.3482 79.6459 41.321 79.6459 41.2766ZM76.9151 38.6107V38.1562C76.9151 38.1078 76.8708 38.0725 76.8203 38.0725H74.5809C74.5304 38.0725 74.4901 38.1078 74.4901 38.1562V38.6107C74.4901 38.6591 74.5304 38.6944 74.5809 38.6944H75.3162V41.2605C75.3162 41.3079 75.3576 41.3482 75.4071 41.3482H75.9982C76.0476 41.3482 76.09 41.3079 76.09 41.2605V38.6944H76.8203C76.8708 38.6944 76.9151 38.6591 76.9151 38.6107ZM74.1793 41.1799V38.1562C74.1793 38.1078 74.138 
38.0725 74.0886 38.0725H73.556C73.5055 38.0725 73.4651 38.1078 73.4651 38.1562V40.0208C73.4651 40.052 73.452 40.0611 73.4429 40.0611C73.4298 40.0611 73.4248 40.052 73.4077 40.0248L72.3364 38.2096C72.2829 38.1169 72.2375 38.0725 72.1477 38.0725H71.6907C71.596 38.0725 71.5193 38.1471 71.5193 38.2408V41.2605C71.5193 41.3079 71.5596 41.3482 71.6091 41.3482H72.1427C72.1921 41.3482 72.2324 41.3079 72.2324 41.2605V39.4745C72.2324 39.4483 72.2415 39.4392 72.2557 39.4392C72.2698 39.4392 72.2779 39.4483 72.296 39.4745L73.326 41.2111C73.3976 41.33 73.4651 41.3482 73.561 41.3482H74.0028C74.0977 41.3482 74.1793 41.2725 74.1793 41.1799ZM70.9503 41.2383V40.8271C70.9503 40.7797 70.91 40.7394 70.8605 40.7394H69.9436C69.7318 40.7394 69.6551 40.6699 69.6551 40.4401V39.9724H70.8242C70.8736 39.9724 70.915 39.9331 70.915 39.8837V39.4655C70.915 39.417 70.8736 39.3778 70.8242 39.3778H69.6551V38.9766C69.6551 38.7468 69.7318 38.6772 69.9436 38.6772H70.8605C70.91 38.6772 70.9503 38.6369 70.9503 38.5886V38.1783C70.9503 38.1219 70.9231 38.0997 70.8605 38.0906C70.7022 38.0685 70.4762 38.0332 69.989 38.0332C69.4059 38.0332 68.8874 38.1743 68.8874 38.9766V40.4401C68.8874 41.2423 69.4019 41.3875 69.9849 41.3875C70.4722 41.3875 70.7022 41.3522 70.8605 41.3301C70.9231 41.321 70.9503 41.2947 70.9503 41.2383ZM67.5821 39.9946C67.5821 40.5892 67.3208 40.7485 66.9142 40.7485C66.8013 40.7485 66.657 40.7445 66.5935 40.7394V38.6813C66.657 38.6772 66.8013 38.6722 66.9142 38.6722C67.3208 38.6722 67.5821 38.8315 67.5821 39.4261V39.9946ZM68.3548 39.9946V39.4261C68.3548 38.4958 67.8131 38.0332 66.9142 38.0332C66.5401 38.0332 66.1385 38.0685 65.9519 38.0997C65.8662 38.1128 65.8218 38.1522 65.8218 38.2539V41.1668C65.8218 41.2676 65.8662 41.3079 65.9519 41.321C66.1385 41.3522 66.5401 41.3875 66.9142 41.3875C67.8131 41.3875 68.3548 40.9238 68.3548 39.9946Z" fill="white"/>
</svg>
