<svg width="12" height="13" viewBox="0 0 12 13" fill="none" xmlns="http://www.w3.org/2000/svg">
<path d="M5.06653 7.16515C4.91474 7.31867 4.66723 7.32007 4.5137 7.16828C4.36018 7.01648 4.35878 6.76897 4.51057 6.61545L9.45348 1.96313C9.60528 1.80961 9.85279 1.80821 10.0063 1.96C10.1598 2.1118 10.1612 2.35931 10.0094 2.51283L5.06653 7.16515Z" fill="#FF9090"/>
<path d="M10.2672 5.28053C10.2684 5.49642 10.0944 5.67243 9.87847 5.67365C9.66257 5.67487 9.48657 5.50085 9.48534 5.28496L9.46746 2.12516C9.46624 1.90927 9.64027 1.73326 9.85616 1.73204C10.0721 1.73082 10.2481 1.90484 10.2493 2.12074L10.2672 5.28053Z" fill="#FF9090"/>
<path d="M6.69719 1.75074C6.4813 1.75196 6.30727 1.92797 6.30849 2.14386C6.30972 2.35975 6.48572 2.53378 6.70162 2.53256L9.82639 2.51487C10.0423 2.51365 10.2163 2.33765 10.2151 2.12175C10.2139 1.90586 10.0379 1.73183 9.82197 1.73306L6.69719 1.75074Z" fill="#FF9090"/>
<path d="M10.224 9.63192V8.41383C10.2029 7.88394 9.44612 7.88434 9.42521 8.41383V9.63192C9.42521 10.5128 8.70857 11.2294 7.82772 11.2294H2.39624C1.51538 11.2294 0.798747 10.5128 0.798747 9.63192V4.20044C0.798747 3.31958 1.51538 2.60295 2.39624 2.60295H3.65427C4.18415 2.58186 4.18375 1.82511 3.65427 1.8042H2.39624C1.07495 1.8042 0 2.87915 0 4.20044V9.63192C0 10.9532 1.07495 12.0282 2.39624 12.0282H7.82772C9.149 12.0282 10.224 10.9532 10.224 9.63192Z" fill="#FF9090"/>
</svg>
