<svg width="9" height="16" viewBox="0 0 9 16" fill="none" xmlns="http://www.w3.org/2000/svg">
<path d="M5.26953 15.35C5.26953 15.709 4.97852 16 4.61953 16C4.26055 16 3.96953 15.709 3.96953 15.35L3.96953 1.65C3.96953 1.29101 4.26055 1 4.61953 1C4.97852 1 5.26953 1.29101 5.26953 1.65L5.26953 15.35Z" fill="#333570"/>
<path d="M8.80991 4.62119C9.06375 4.87503 9.06375 5.28659 8.80991 5.54043C8.55607 5.79427 8.14452 5.79427 7.89068 5.54043L4.17549 1.82524C3.92165 1.5714 3.92165 1.15984 4.17549 0.906004C4.42933 0.652164 4.84089 0.652164 5.09473 0.906005L8.80991 4.62119Z" fill="#333570"/>
<path d="M0.462235 4.62119C0.208394 4.87503 0.208394 5.28659 0.462234 5.54043C0.716075 5.79427 1.12763 5.79427 1.38147 5.54043L5.05549 1.86641C5.30933 1.61257 5.30933 1.20102 5.05549 0.947175C4.80165 0.693334 4.39009 0.693334 4.13625 0.947175L0.462235 4.62119Z" fill="#333570"/>
</svg>
